<svg xmlns="http://www.w3.org/2000/svg" viewBox="0 0 720 200" role="img" aria-labelledby="t d"><title id="t">The toy SGD schedule</title><desc id="d">The handout toy example divides the learning rate by the square root of t plus one, so steps shrink over time.</desc><defs><marker id="arrow" viewBox="0 0 10 10" refX="9" refY="5" markerWidth="7" markerHeight="7" orient="auto-start-reverse"><path d="M0 0L10 5L0 10Z" fill="#8c1515"/></marker><marker id="arrow-g" viewBox="0 0 10 10" refX="9" refY="5" markerWidth="7" markerHeight="7" orient="auto-start-reverse"><path d="M0 0L10 5L0 10Z" fill="#746d67"/></marker></defs><rect width="720" height="200" rx="14" fill="#fffdfa"/><rect x="1" y="1" width="718" height="198" rx="13" fill="none" stroke="#ded9d2" stroke-width="2"/><path d="M60 160L680 160" fill="none" stroke="#746d67" stroke-width="1.2"/><path d="M60 160L60 40" fill="none" stroke="#746d67" stroke-width="1.2"/><text x="680" y="178" text-anchor="end" font-family="Inter,Arial,sans-serif" font-size="11" font-weight="400" fill="#746d67">step t</text><text x="52" y="44" text-anchor="end" font-family="Inter,Arial,sans-serif" font-size="11" font-weight="400" fill="#746d67">α_t</text><path d="M60.0 50.0 L65.6 55.1 L71.2 59.6 L76.8 63.5 L82.4 67.0 L88.0 70.2 L93.6 73.0 L99.2 75.6 L104.8 78.0 L110.4 80.2 L116.0 82.2 L121.6 84.1 L127.2 85.8 L132.8 87.5 L138.4 89.0 L144.0 90.4 L149.6 91.8 L155.2 93.1 L160.8 94.3 L166.4 95.4 L172.0 96.5 L177.6 97.5 L183.2 98.5 L188.8 99.4 L194.4 100.3 L200.0 101.2 L205.6 102.0 L211.2 102.8 L216.8 103.6 L222.4 104.3 L228.0 105.0 L233.6 105.7 L239.2 106.3 L244.8 107.0 L250.4 107.6 L256.0 108.1 L261.6 108.7 L267.2 109.3 L272.8 109.8 L278.4 110.3 L284.0 110.8 L289.6 111.3 L295.2 111.8 L300.8 112.2 L306.4 112.7 L312.0 113.1 L317.6 113.5 L323.2 113.9 L328.8 114.3 L334.4 114.7 L340.0 115.1 L345.6 115.5 L351.2 115.8 L356.8 116.2 L362.4 116.5 L368.0 116.9 L373.6 117.2 L379.2 117.5 L384.8 117.8 L390.4 118.1 L396.0 118.4 L401.6 118.7 L407.2 119.0 L412.8 119.3 L418.4 119.6 L424.0 119.8 L429.6 120.1 L435.2 120.4 L440.8 120.6 L446.4 120.9 L452.0 121.1 L457.6 121.3 L463.2 121.6 L468.8 121.8 L474.4 122.0 L480.0 122.3 L485.6 122.5 L491.2 122.7 L496.8 122.9 L502.4 123.1 L508.0 123.3 L513.6 123.5 L519.2 123.7 L524.8 123.9 L530.4 124.1 L536.0 124.3 L541.6 124.5 L547.2 124.7 L552.8 124.9 L558.4 125.0 L564.0 125.2 L569.6 125.4 L575.2 125.6 L580.8 125.7 L586.4 125.9 L592.0 126.1 L597.6 126.2 L603.2 126.4 L608.8 126.5 L614.4 126.7 L620.0 126.8" fill="none" stroke="#8c1515" stroke-width="2.5"/><circle cx="60" cy="50" r="4" fill="#8c1515" stroke="#8c1515" stroke-width="0"/><text x="60" y="178" text-anchor="middle" font-family="Inter,Arial,sans-serif" font-size="10" font-weight="400" fill="#746d67">0</text><circle cx="172" cy="96.4915" r="4" fill="#8c1515" stroke="#8c1515" stroke-width="0"/><text x="172" y="178" text-anchor="middle" font-family="Inter,Arial,sans-serif" font-size="10" font-weight="400" fill="#746d67">2</text><circle cx="284" cy="110.807" r="4" fill="#8c1515" stroke="#8c1515" stroke-width="0"/><text x="284" y="178" text-anchor="middle" font-family="Inter,Arial,sans-serif" font-size="10" font-weight="400" fill="#746d67">4</text><circle cx="396" cy="118.424" r="4" fill="#8c1515" stroke="#8c1515" stroke-width="0"/><text x="396" y="178" text-anchor="middle" font-family="Inter,Arial,sans-serif" font-size="10" font-weight="400" fill="#746d67">6</text><circle cx="508" cy="123.333" r="4" fill="#8c1515" stroke="#8c1515" stroke-width="0"/><text x="508" y="178" text-anchor="middle" font-family="Inter,Arial,sans-serif" font-size="10" font-weight="400" fill="#746d67">8</text><circle cx="620" cy="126.834" r="4" fill="#8c1515" stroke="#8c1515" stroke-width="0"/><text x="620" y="178" text-anchor="middle" font-family="Inter,Arial,sans-serif" font-size="10" font-weight="400" fill="#746d67">10</text><text x="127.2" y="54" text-anchor="start" font-family="ui-monospace,Menlo,Consolas,monospace" font-size="13" font-weight="700" fill="#8c1515">α_t = α / √(t+1)</text><text x="360" y="30" text-anchor="start" font-family="Inter,Arial,sans-serif" font-size="12" font-weight="400" fill="#746d67">large early steps, smaller later ones</text></svg>
